<svg viewBox="0 0 800 600" xmlns="http://www.w3.org/2000/svg" style="background-color:white">
  <!-- Title -->
  <text x="400" y="40" text-anchor="middle" font-family="Arial, sans-serif" font-size="48" font-weight="bold" fill="black">scotustician</text>
  
  <!-- Ingest ECS task -->
  <rect x="50" y="180" width="120" height="80" rx="5" fill="none" stroke="black" stroke-width="2"/>
  <text x="110" y="210" text-anchor="middle" font-family="Arial, sans-serif" font-size="14" font-weight="bold">Ingest</text>
  <text x="110" y="230" text-anchor="middle" font-family="Arial, sans-serif" font-size="14" font-weight="bold">ECS task</text>
  
  <!-- Arrow from Ingest to scotustician-db -->
  <line x1="170" y1="220" x2="230" y2="220" stroke="black" stroke-width="2" marker-end="url(#arrowhead)"/>
  
  <!-- scotustician-db container -->
  <rect x="230" y="100" width="400" height="200" rx="10" fill="none" stroke="black" stroke-width="2"/>
  <text x="430" y="130" text-anchor="middle" font-family="Arial, sans-serif" font-size="18" font-weight="bold">scotustician-db</text>
  
  <!-- Amazon S3 -->
  <rect x="250" y="160" width="140" height="120" rx="5" fill="none" stroke="black" stroke-width="2"/>
  <circle cx="290" cy="190" r="15" fill="none" stroke="black" stroke-width="2"/>
  <rect x="275" y="175" width="30" height="30" fill="none" stroke="black" stroke-width="2"/>
  <text x="320" y="230" text-anchor="middle" font-family="Arial, sans-serif" font-size="14" font-weight="bold">Amazon S3</text>
  
  <!-- Postgres (pgvector) -->
  <rect x="420" y="160" width="180" height="120" rx="5" fill="none" stroke="black" stroke-width="2"/>
  <circle cx="510" cy="210" r="25" fill="none" stroke="black" stroke-width="3"/>
  <circle cx="510" cy="210" r="15" fill="none" stroke="black" stroke-width="2"/>
  <circle cx="510" cy="210" r="8" fill="black"/>
  <text x="510" y="250" text-anchor="middle" font-family="Arial, sans-serif" font-size="14" font-weight="bold">Postgres</text>
  <text x="510" y="265" text-anchor="middle" font-family="Arial, sans-serif" font-size="14" font-weight="bold">(pgvector)</text>
  
  <!-- Transformers ECS task -->
  <rect x="50" y="400" width="120" height="80" rx="5" fill="none" stroke="black" stroke-width="2"/>
  <text x="110" y="430" text-anchor="middle" font-family="Arial, sans-serif" font-size="14" font-weight="bold">Transformers</text>
  <text x="110" y="450" text-anchor="middle" font-family="Arial, sans-serif" font-size="14" font-weight="bold">ECS task</text>
  
  <!-- Arrow from Transformers to ECS -->
  <line x1="170" y1="440" x2="230" y2="440" stroke="black" stroke-width="2" marker-end="url(#arrowhead)"/>
  
  <!-- ECS container (middle) -->
  <rect x="230" y="400" width="100" height="80" rx="5" fill="none" stroke="black" stroke-width="2"/>
  <text x="280" y="450" text-anchor="middle" font-family="Arial, sans-serif" font-size="16" font-weight="bold">ECS</text>
  
  <!-- Arrow from ECS to OpenSearch -->
  <line x1="330" y1="440" x2="330" y2="350" stroke="black" stroke-width="2"/>
  <line x1="330" y1="350" x2="510" y2="350" stroke="black" stroke-width="2"/>
  <line x1="510" y1="350" x2="510" y2="280" stroke="black" stroke-width="2" marker-end="url(#arrowhead)"/>
  
  <!-- scotustician-api container -->
  <rect x="670" y="160" width="120" height="200" rx="10" fill="none" stroke="black" stroke-width="2" stroke-dasharray="5,5"/>
  <text x="730" y="190" text-anchor="middle" font-family="Arial, sans-serif" font-size="16" font-weight="bold">scotustician-api</text>
  
  <!-- Semantic search API -->
  <rect x="680" y="210" width="100" height="60" rx="5" fill="none" stroke="black" stroke-width="2" stroke-dasharray="5,5"/>
  <text x="730" y="230" text-anchor="middle" font-family="Arial, sans-serif" font-size="12" font-weight="bold">Semantic</text>
  <text x="730" y="245" text-anchor="middle" font-family="Arial, sans-serif" font-size="12" font-weight="bold">search API</text>
  
  <!-- ECS in API -->
  <rect x="690" y="285" width="80" height="40" rx="5" fill="none" stroke="black" stroke-width="2"/>
  <text x="730" y="310" text-anchor="middle" font-family="Arial, sans-serif" font-size="14" font-weight="bold">ECS</text>
  
  <!-- Arrow from API to Postgres -->
  <line x1="680" y1="305" x2="600" y2="305" stroke="black" stroke-width="2"/>
  <line x1="600" y1="305" x2="600" y2="220" stroke="black" stroke-width="2" marker-end="url(#arrowhead)"/>
  
  <!-- scotustician-ui container -->
  <rect x="450" y="420" width="280" height="150" rx="10" fill="none" stroke="black" stroke-width="2"/>
  <text x="590" y="450" text-anchor="middle" font-family="Arial, sans-serif" font-size="18" font-weight="bold">scotustician-ui</text>
  
  <!-- Inner scotustician-ui -->
  <rect x="470" y="470" width="120" height="80" rx="5" fill="none" stroke="black" stroke-width="2"/>
  <text x="530" y="520" text-anchor="middle" font-family="Arial, sans-serif" font-size="16" font-weight="bold">ECS</text>
  
  <!-- scotustician-ui label inside -->
  <text x="650" y="520" text-anchor="middle" font-family="Arial, sans-serif" font-size="14" font-weight="bold">scotustician-ui</text>
  
  <!-- Arrow from UI to API -->
  <line x1="590" y1="470" x2="590" y2="400" stroke="black" stroke-width="2"/>
  <line x1="590" y1="400" x2="730" y2="400" stroke="black" stroke-width="2"/>
  <line x1="730" y1="400" x2="730" y2="360" stroke="black" stroke-width="2" marker-end="url(#arrowhead)"/>
  
  <!-- Arrow marker definition -->
  <defs>
    <marker id="arrowhead" markerWidth="10" markerHeight="7" 
     refX="9" refY="3.5" orient="auto">
      <polygon points="0 0, 10 3.5, 0 7" fill="black"/>
    </marker>
  </defs>
</svg>